<?xml version="1.0" encoding="UTF-8"?>
<svg width="977px" height="863px" viewBox="-1 55 977 863" xmlns="http://www.w3.org/2000/svg" xmlns:xlink="http://www.w3.org/1999/xlink" version="1.1">
 <!-- Generated by Pixelmator Pro 2.0.3 -->
 <g id="group">
  <path id="Path" d="M925.036 57.197 L621.036 57.197 C593.436 57.197 571.036 79.597 571.036 107.197 L571.036 411.197 C571.036 438.798 593.436 461.197 621.036 461.197 L766.536 461.197 C764.636 540.798 746.136 604.497 711.136 652.397 683.536 690.197 641.737 721.497 585.836 746.197 560.136 757.497 549.036 787.897 561.036 813.298 L597.036 889.298 C608.636 913.697 637.336 924.398 662.136 913.697 728.336 885.097 784.237 848.897 829.836 804.897 885.437 751.197 923.536 690.597 944.136 622.997 964.737 555.397 975.036 463.197 975.036 346.197 L975.036 107.197 C975.036 79.598 952.635 57.197 925.036 57.197 Z" fill="#f9fafb" fill-opacity="1" stroke="none"/>
  <path id="Path-1" d="M106.036 913.497 C171.436 884.997 227.036 848.798 272.936 804.897 329.036 751.197 367.336 690.797 387.936 623.697 408.536 556.597 418.835 464.097 418.835 346.197 L418.835 107.197 C418.835 79.597 396.436 57.197 368.835 57.197 L64.835 57.197 C37.235 57.197 14.835 79.597 14.835 107.197 L14.835 411.197 C14.835 438.798 37.235 461.197 64.835 461.197 L210.335 461.197 C208.435 540.798 189.935 604.497 154.935 652.397 127.335 690.197 85.535 721.497 29.635 746.197 3.935 757.497 -7.165 787.897 4.835 813.298 L40.735 889.098 C52.336 913.497 81.236 924.298 106.036 913.497 Z" fill="#f9fafb" fill-opacity="1" stroke="none"/>
 </g>
</svg>
